<svg xmlns="http://www.w3.org/2000/svg" width="128" height="128" viewBox="0 0 128 128" shape-rendering="crispEdges" class="duck" aria-hidden="true"><rect x="32" y="8" width="8" height="8" fill="#FFFFFF"/><rect x="40" y="8" width="8" height="8" fill="#FFFFFF"/><rect x="48" y="8" width="8" height="8" fill="#FFFFFF"/><rect x="56" y="8" width="8" height="8" fill="#FFFFFF"/><rect x="64" y="8" width="8" height="8" fill="#FFFFFF"/><rect x="24" y="16" width="8" height="8" fill="#FFFFFF"/><rect x="32" y="16" width="8" height="8" fill="#1F3A8A"/><rect x="40" y="16" width="8" height="8" fill="#FFFFFF"/><rect x="48" y="16" width="8" height="8" fill="#FFFFFF"/><rect x="56" y="16" width="8" height="8" fill="#FFFFFF"/><rect x="64" y="16" width="8" height="8" fill="#1F3A8A"/><rect x="72" y="16" width="8" height="8" fill="#FFFFFF"/><rect x="24" y="24" width="8" height="8" fill="#FFFFFF"/><rect x="32" y="24" width="8" height="8" fill="#FFFFFF"/><rect x="40" y="24" width="8" height="8" fill="#FFFFFF"/><rect x="48" y="24" width="8" height="8" fill="#FFFFFF"/><rect x="56" y="24" width="8" height="8" fill="#FFFFFF"/><rect x="64" y="24" width="8" height="8" fill="#FFFFFF"/><rect x="72" y="24" width="8" height="8" fill="#FFFFFF"/><rect x="32" y="32" width="8" height="8" fill="#FFCE2B"/><rect x="40" y="32" width="8" height="8" fill="#FFCE2B"/><rect x="48" y="32" width="8" height="8" fill="#FFCE2B"/><rect x="56" y="32" width="8" height="8" fill="#FFCE2B"/><rect x="64" y="32" width="8" height="8" fill="#FFCE2B"/><rect x="72" y="32" width="8" height="8" fill="#FFCE2B"/><rect x="24" y="40" width="8" height="8" fill="#FFCE2B"/><rect x="32" y="40" width="8" height="8" fill="#FFCE2B"/><rect x="40" y="40" width="8" height="8" fill="#FFCE2B"/><rect x="48" y="40" width="8" height="8" fill="#FFCE2B"/><rect x="56" y="40" width="8" height="8" fill="#FFCE2B"/><rect x="64" y="40" width="8" height="8" fill="#FFCE2B"/><rect x="72" y="40" width="8" height="8" fill="#FFCE2B"/><rect x="80" y="40" width="8" height="8" fill="#FFCE2B"/><rect x="24" y="48" width="8" height="8" fill="#FFCE2B"/><rect x="32" y="48" width="8" height="8" fill="#FFCE2B"/><rect x="40" y="48" width="8" height="8" fill="#20303A"/><rect x="48" y="48" width="8" height="8" fill="#FFFFFF"/><rect x="56" y="48" width="8" height="8" fill="#FFCE2B"/><rect x="64" y="48" width="8" height="8" fill="#FFCE2B"/><rect x="72" y="48" width="8" height="8" fill="#FFCE2B"/><rect x="80" y="48" width="8" height="8" fill="#FFCE2B"/><rect x="88" y="48" width="8" height="8" fill="#FF7A30"/><rect x="96" y="48" width="8" height="8" fill="#FF7A30"/><rect x="104" y="48" width="8" height="8" fill="#FF7A30"/><rect x="24" y="56" width="8" height="8" fill="#FFCE2B"/><rect x="32" y="56" width="8" height="8" fill="#FFCE2B"/><rect x="40" y="56" width="8" height="8" fill="#FFCE2B"/><rect x="48" y="56" width="8" height="8" fill="#FFCE2B"/><rect x="56" y="56" width="8" height="8" fill="#FFCE2B"/><rect x="64" y="56" width="8" height="8" fill="#FFCE2B"/><rect x="72" y="56" width="8" height="8" fill="#FFCE2B"/><rect x="80" y="56" width="8" height="8" fill="#FFCE2B"/><rect x="88" y="56" width="8" height="8" fill="#FF7A30"/><rect x="96" y="56" width="8" height="8" fill="#FF7A30"/><rect x="104" y="56" width="8" height="8" fill="#FF7A30"/><rect x="16" y="64" width="8" height="8" fill="#FFCE2B"/><rect x="24" y="64" width="8" height="8" fill="#FFCE2B"/><rect x="32" y="64" width="8" height="8" fill="#FFCE2B"/><rect x="40" y="64" width="8" height="8" fill="#FFCE2B"/><rect x="48" y="64" width="8" height="8" fill="#FFCE2B"/><rect x="56" y="64" width="8" height="8" fill="#FFCE2B"/><rect x="64" y="64" width="8" height="8" fill="#FFCE2B"/><rect x="72" y="64" width="8" height="8" fill="#FFCE2B"/><rect x="80" y="64" width="8" height="8" fill="#FFCE2B"/><rect x="88" y="64" width="8" height="8" fill="#FFCE2B"/><rect x="8" y="72" width="8" height="8" fill="#FFCE2B"/><rect x="16" y="72" width="8" height="8" fill="#FFCE2B"/><rect x="24" y="72" width="8" height="8" fill="#FFCE2B"/><rect x="32" y="72" width="8" height="8" fill="#FFCE2B"/><rect x="40" y="72" width="8" height="8" fill="#FFCE2B"/><rect x="48" y="72" width="8" height="8" fill="#FFCE2B"/><rect x="56" y="72" width="8" height="8" fill="#FFCE2B"/><rect x="64" y="72" width="8" height="8" fill="#FFCE2B"/><rect x="72" y="72" width="8" height="8" fill="#FFCE2B"/><rect x="80" y="72" width="8" height="8" fill="#FFCE2B"/><rect x="88" y="72" width="8" height="8" fill="#FFCE2B"/><rect x="96" y="72" width="8" height="8" fill="#FFCE2B"/><rect x="104" y="72" width="8" height="8" fill="#FFCE2B"/><rect x="0" y="80" width="8" height="8" fill="#FFCE2B"/><rect x="8" y="80" width="8" height="8" fill="#FFCE2B"/><rect x="16" y="80" width="8" height="8" fill="#FFCE2B"/><rect x="24" y="80" width="8" height="8" fill="#FFCE2B"/><rect x="32" y="80" width="8" height="8" fill="#FFCE2B"/><rect x="40" y="80" width="8" height="8" fill="#FFCE2B"/><rect x="48" y="80" width="8" height="8" fill="#FFCE2B"/><rect x="56" y="80" width="8" height="8" fill="#FFCE2B"/><rect x="64" y="80" width="8" height="8" fill="#FFCE2B"/><rect x="72" y="80" width="8" height="8" fill="#FFCE2B"/><rect x="80" y="80" width="8" height="8" fill="#FFCE2B"/><rect x="88" y="80" width="8" height="8" fill="#FFCE2B"/><rect x="96" y="80" width="8" height="8" fill="#FFCE2B"/><rect x="104" y="80" width="8" height="8" fill="#FFCE2B"/><rect x="112" y="80" width="8" height="8" fill="#FFCE2B"/><rect x="0" y="88" width="8" height="8" fill="#FFCE2B"/><rect x="8" y="88" width="8" height="8" fill="#FFCE2B"/><rect x="16" y="88" width="8" height="8" fill="#FFCE2B"/><rect x="24" y="88" width="8" height="8" fill="#FFCE2B"/><rect x="32" y="88" width="8" height="8" fill="#FFCE2B"/><rect x="40" y="88" width="8" height="8" fill="#FFCE2B"/><rect x="48" y="88" width="8" height="8" fill="#FFCE2B"/><rect x="56" y="88" width="8" height="8" fill="#FFCE2B"/><rect x="64" y="88" width="8" height="8" fill="#FFCE2B"/><rect x="72" y="88" width="8" height="8" fill="#FFCE2B"/><rect x="80" y="88" width="8" height="8" fill="#FFCE2B"/><rect x="88" y="88" width="8" height="8" fill="#FFCE2B"/><rect x="96" y="88" width="8" height="8" fill="#FFCE2B"/><rect x="104" y="88" width="8" height="8" fill="#FFCE2B"/><rect x="112" y="88" width="8" height="8" fill="#FFCE2B"/><rect x="120" y="88" width="8" height="8" fill="#FFCE2B"/><rect x="0" y="96" width="8" height="8" fill="#FFCE2B"/><rect x="8" y="96" width="8" height="8" fill="#FFCE2B"/><rect x="16" y="96" width="8" height="8" fill="#FFCE2B"/><rect x="24" y="96" width="8" height="8" fill="#FFCE2B"/><rect x="32" y="96" width="8" height="8" fill="#FFCE2B"/><rect x="40" y="96" width="8" height="8" fill="#FFCE2B"/><rect x="48" y="96" width="8" height="8" fill="#FFCE2B"/><rect x="56" y="96" width="8" height="8" fill="#FFCE2B"/><rect x="64" y="96" width="8" height="8" fill="#FFCE2B"/><rect x="72" y="96" width="8" height="8" fill="#FFCE2B"/><rect x="80" y="96" width="8" height="8" fill="#FFCE2B"/><rect x="88" y="96" width="8" height="8" fill="#FFCE2B"/><rect x="96" y="96" width="8" height="8" fill="#FFCE2B"/><rect x="104" y="96" width="8" height="8" fill="#FFCE2B"/><rect x="112" y="96" width="8" height="8" fill="#FFCE2B"/><rect x="8" y="104" width="8" height="8" fill="#FFCE2B"/><rect x="16" y="104" width="8" height="8" fill="#FFCE2B"/><rect x="24" y="104" width="8" height="8" fill="#FFCE2B"/><rect x="32" y="104" width="8" height="8" fill="#FFCE2B"/><rect x="40" y="104" width="8" height="8" fill="#FFCE2B"/><rect x="48" y="104" width="8" height="8" fill="#FFCE2B"/><rect x="56" y="104" width="8" height="8" fill="#FFCE2B"/><rect x="64" y="104" width="8" height="8" fill="#FFCE2B"/><rect x="72" y="104" width="8" height="8" fill="#FFCE2B"/><rect x="80" y="104" width="8" height="8" fill="#FFCE2B"/><rect x="88" y="104" width="8" height="8" fill="#FFCE2B"/><rect x="96" y="104" width="8" height="8" fill="#FFCE2B"/><rect x="104" y="104" width="8" height="8" fill="#FFCE2B"/><rect x="16" y="112" width="8" height="8" fill="#E2960F"/><rect x="24" y="112" width="8" height="8" fill="#FFCE2B"/><rect x="32" y="112" width="8" height="8" fill="#FFCE2B"/><rect x="40" y="112" width="8" height="8" fill="#FFCE2B"/><rect x="48" y="112" width="8" height="8" fill="#FFCE2B"/><rect x="56" y="112" width="8" height="8" fill="#FFCE2B"/><rect x="64" y="112" width="8" height="8" fill="#FFCE2B"/><rect x="72" y="112" width="8" height="8" fill="#FFCE2B"/><rect x="80" y="112" width="8" height="8" fill="#FFCE2B"/><rect x="88" y="112" width="8" height="8" fill="#FFCE2B"/><rect x="96" y="112" width="8" height="8" fill="#E2960F"/><rect x="32" y="120" width="8" height="8" fill="#7FC4F2"/><rect x="40" y="120" width="8" height="8" fill="#7FC4F2"/><rect x="48" y="120" width="8" height="8" fill="#7FC4F2"/><rect x="56" y="120" width="8" height="8" fill="#7FC4F2"/><rect x="72" y="120" width="8" height="8" fill="#7FC4F2"/><rect x="80" y="120" width="8" height="8" fill="#7FC4F2"/><rect x="88" y="120" width="8" height="8" fill="#7FC4F2"/><rect x="96" y="120" width="8" height="8" fill="#7FC4F2"/></svg>